<?xml version="1.0" encoding="UTF-8"?>
<svg id="Capa_1" xmlns="http://www.w3.org/2000/svg" version="1.1" viewBox="0 400 1080 300">
  <!-- Generator: Adobe Illustrator 29.5.1, SVG Export Plug-In . SVG Version: 2.1.0 Build 141)  -->
  <defs>
    <style>
      .st0 {
        fill: #415a76;
      }

      .st1 {
        fill: #778daa;
      }

      .st2 {
        fill: #1a263d;
      }
    </style>
  </defs>
  <path class="st0" d="M43.43,554.28c0,6.15,0,12.31,0,18.46,0,.59-.04,1.24.17,1.77.35.91,0,1.42-.69,1.9-.78.54-1.42.42-2.06-.25-2.66-2.75-4.18-6.13-5.37-9.67-1.26-3.73-1.74-7.63-1.79-11.54-.11-9.05-.01-18.1-.05-27.15-.02-5.73,2.14-10.63,5.76-14.88,3.73-4.38,7.81-8.46,11.8-12.61,4.69-4.88,9.31-9.82,13.79-14.89,3.46-3.91,6.93-7.82,10.75-11.36,3.31-3.07,5.87-6.76,8.92-10.05,2-2.15,4.46-3.16,7.45-3.14,11.52.06,23.05.05,34.57,0,3.23-.01,5.26,1.69,5.11,5.1-.17,4.07-.15,8.15-.35,12.24-.41,8.42.45,16.84.34,25.26-.08,6.65-2.35,12.48-6.25,17.72-3.24,4.37-7.14,8.17-10.74,12.23-5.34,6.02-10.64,12.08-15.97,18.12-2.96,3.35-6.09,6.58-8.89,10.06-2.63,3.26-4.08,7.06-4.61,11.29-.24,1.89.07,3.65.07,5.47.03,11.95,0,23.89.02,35.84,0,1,.05,2.03-1.16,2.31-1.14.26-1.87-.19-2.63-1.26-3.51-4.97-5.2-10.45-5.71-16.49-.36-4.33-.13-8.65-.29-12.96-.19-5.22-.04-10.45-.26-15.68-.3-7.18,1.81-13.87,5.92-19.87,2.34-3.41,5.22-6.34,7.98-9.37,5.38-5.92,10.78-11.83,16.04-17.86,2.59-2.97,5.38-5.78,7.97-8.76,2.48-2.84,5.14-5.55,6.55-9.2.82-2.11.96-4.3,1-6.45.13-7.42.05-14.84.05-22.26,0-2.42-.63-3.12-3.03-3.13-6.15-.03-12.31-.02-18.46,0-2.16,0-4.2.8-5.7,2.14-3.79,3.4-7.16,7.24-10.52,11.07-.2.23-.4.45-.61.66-3.55,3.67-7.21,7.26-10.63,11.04-5.41,5.98-11.01,11.79-16.23,17.94-3.08,3.63-6.36,7.09-9.34,10.82-2.06,2.58-2.81,5.62-2.9,8.75-.16,6.21-.05,12.43-.05,18.64Z"/>
  <path class="st1" d="M144.39,467.97c2.06,2.17,3.95,4.3,5.38,6.81,2.39,4.22,3.2,8.75,3.46,13.6.44,8.25-.19,16.5.35,24.72.35,5.24.14,10.29-1.54,15.26-1.6,4.73-4.3,8.83-7.7,12.4-5.74,6.02-11.25,12.26-16.85,18.41-4.06,4.46-7.95,9.06-12.05,13.48-3.54,3.82-6.25,8.13-7.13,13.39-.09.53-.07,1.08-.07,1.62,0,6.88-.04,13.75.04,20.63.01,1.09-.46,2.09-.15,3.29.34,1.31,1.03,1.7,2.09,1.71,7.12.04,14.24.06,21.36-.01,1.49-.01,2.89-.67,3.96-1.76,4.25-4.34,8.55-8.63,12.69-13.08,3.06-3.28,6.07-6.62,9.16-9.88,4.16-4.38,8.25-8.83,12.27-13.34,3.54-3.97,7.12-7.9,10.73-11.81,3.76-4.07,5.71-8.89,5.7-14.49-.02-12.25,0-24.49,0-36.74,0-.42,0-.84,0-1.27.02-.61.14-1.27.77-1.44.59-.16,1.17.24,1.56.68,3.48,3.94,5.6,8.46,6.4,13.73,1.58,10.34,1,20.72.94,31.09-.02,2.84.13,5.77-.4,8.59-.73,3.87-2.86,7.09-5.5,9.94-4.08,4.4-8.28,8.68-12.33,13.1-4.89,5.35-9.85,10.63-14.81,15.92-3.07,3.27-6.05,6.64-9.17,9.87-2.74,2.84-5.36,5.8-8.02,8.72-3.15,3.46-7.08,4.93-11.74,4.9-10.8-.07-21.6-.02-32.4-.02-2.72,0-3.63-.9-3.64-3.64-.01-3.74-.22-7.5.06-11.22.22-2.94.3-5.86.28-8.8-.03-5.75-.57-11.49-.61-17.22-.04-6.06,1.38-11.92,4.59-17.25,2.67-4.43,6.32-8.01,9.71-11.84,4.7-5.32,9.39-10.64,14.14-15.92,2.12-2.36,4.41-4.59,6.54-6.95,3.49-3.87,7.17-7.62,9.28-12.52,1.2-2.77,2.29-5.64,2.31-8.66.09-13.94.04-27.89.05-41.84,0-.63-.18-1.3.3-2.17Z"/>
  <path class="st2" d="M659.32,548.39h18.14c-3.1,18.36-19.25,25.67-34.96,25.67-17.26,0-36.51-8.3-36.51-31.09s19.25-31.09,36.51-31.09c15.71,0,31.86,7.41,34.96,25.78h-18.14c-1.66-7.08-7.08-12.17-16.82-12.17-12.17,0-17.59,7.85-17.59,17.48s5.42,17.48,17.59,17.48c9.74,0,15.16-5.09,16.82-12.06Z"/>
  <path class="st2" d="M750.15,535.22v37.28h-19.91v-7.97c-2.21,3.54-9.51,9.51-22.79,9.51s-24.45-5.53-24.45-17.04c0-12.39,5.97-23.34,47.24-20.36v-1.44c0-5.75-1.44-10.73-13.39-10.73-9.74,0-12.39,3.21-13.16,6.97h-17.81c1.66-14.49,13.94-19.58,30.98-19.58s33.3,3.54,33.3,23.34ZM730.23,547.95c-18.7-.89-27.88-.11-27.88,8.19,0,4.2,3.76,6.86,10.62,6.86,7.85,0,13.94-3.54,17.26-8.19v-6.86Z"/>
  <path class="st2" d="M833.45,542.97c0,20.02-14.05,31.09-31.2,31.09-8.85,0-16.15-3.65-21.13-9.51v26.44h-19.91v-77.44h19.91v7.97c4.98-5.97,12.28-9.62,21.13-9.62,17.15,0,31.2,11.06,31.2,31.09ZM814.53,542.97c0-9.62-5.42-17.48-17.59-17.48s-17.92,7.85-17.92,17.48,5.86,17.48,17.92,17.48,17.59-7.85,17.59-17.48Z"/>
  <path class="st2" d="M841.96,498.27c0-5.97,4.2-9.4,10.29-9.4s10.29,3.43,10.29,9.4-4.2,9.4-10.29,9.4-10.29-3.43-10.29-9.4ZM842.3,513.54h19.91v58.96h-19.91v-58.96Z"/>
  <path class="st2" d="M899.71,526.04v23.34c0,8.08,4.2,9.62,17.26,7.97v15.16c-4.09.55-7.19.89-11.84.89-21.79,0-25.33-9.18-25.33-24.01v-23.34h-10.95v-12.5h10.95v-15.38h19.91v15.38h17.26v12.5h-17.26Z"/>
  <path class="st2" d="M990.76,535.22v37.28h-19.91v-7.97c-2.21,3.54-9.51,9.51-22.79,9.51s-24.45-5.53-24.45-17.04c0-12.39,5.97-23.34,47.24-20.36v-1.44c0-5.75-1.44-10.73-13.39-10.73-9.74,0-12.39,3.21-13.16,6.97h-17.81c1.66-14.49,13.94-19.58,30.98-19.58s33.3,3.54,33.3,23.34ZM970.84,547.95c-18.7-.89-27.88-.11-27.88,8.19,0,4.2,3.76,6.86,10.62,6.86,7.85,0,13.94-3.54,17.26-8.19v-6.86Z"/>
  <path class="st2" d="M1021.73,490.86v81.64h-19.91v-81.64h19.91Z"/>
  <path class="st2" d="M1053.48,563.1c0,6.08-4.87,10.95-10.84,10.95s-10.95-4.87-10.95-10.95,4.87-10.95,10.95-10.95,10.84,4.98,10.84,10.95Z"/>
  <path class="st0" d="M1053.82,537.01c0,6.1-4.88,10.97-10.86,10.97s-10.97-4.88-10.97-10.97,4.88-10.97,10.97-10.97,10.86,4.99,10.86,10.97Z"/>
  <path class="st1" d="M1053.82,511.44c0,6.1-4.88,10.97-10.86,10.97s-10.97-4.88-10.97-10.97,4.88-10.97,10.97-10.97,10.86,4.99,10.86,10.97Z"/>
  <g>
    <path class="st2" d="M237.17,554.07v-40.93h17.62v36.52c0,7.42,4.29,13.8,15.19,13.8s15.77-6.61,15.77-13.8v-36.52h17.62v61.8h-17.62v-8.7c-2.67,3.71-10.2,10.44-23.42,10.44-15.88,0-25.16-8.7-25.16-22.61Z"/>
    <path class="st2" d="M389.29,534.02v40.93h-17.62v-36.52c0-7.42-4.29-13.8-15.19-13.8s-15.77,6.61-15.77,13.8v36.52h-17.62v-61.8h17.62v8.7c2.67-3.71,10.2-10.32,23.42-10.32,15.88,0,25.16,8.58,25.16,22.49Z"/>
    <path class="st2" d="M408.65,497.72c0-5.33,3.71-8.35,9.04-8.35s9.16,3.01,9.16,8.35-3.83,8.23-9.16,8.23-9.04-3.01-9.04-8.23ZM409,513.14h17.51v61.8h-17.51v-61.8Z"/>
    <path class="st2" d="M469.4,513.14h16.12v12.06h-16.12v49.74h-17.51v-49.74h-10.32v-12.06h10.32c0-12.29,4.29-23.77,24.93-23.77,4.06,0,6.72.35,10.32.81v12.52c-11.48-.93-17.74-.46-17.74,10.44Z"/>
    <path class="st2" d="M570.16,513.14l-37.1,81.16h-17.39l9.74-21.22-28.99-59.94h18.44l18.78,42.09,18.32-42.09h18.2Z"/>
  </g>
</svg>