<?xml version="1.0" encoding="UTF-8"?>
<svg id="Capa_1" xmlns="http://www.w3.org/2000/svg" version="1.1" viewBox="0 0 1080 1080">
  <!-- Generator: Adobe Illustrator 29.5.1, SVG Export Plug-In . SVG Version: 2.1.0 Build 141)  -->
  <defs>
    <style>
      .st0 {
        fill: #fff;
      }
    </style>
  </defs>
  <path class="st0" d="M289.2,571.78c0,21.06-.01,42.12.02,63.18,0,2.03-.14,4.24.57,6.06,1.21,3.1.03,4.86-2.34,6.51-2.66,1.84-4.84,1.45-7.06-.84-9.1-9.39-14.29-20.97-18.37-33.1-4.3-12.78-5.97-26.12-6.14-39.47-.39-30.96-.04-61.94-.16-92.9-.07-19.6,7.32-36.36,19.72-50.92,12.77-15,26.73-28.94,40.39-43.15,16.05-16.69,31.87-33.61,47.19-50.96,11.83-13.39,23.7-26.74,36.78-38.89,11.32-10.51,20.1-23.14,30.52-34.37,6.84-7.37,15.26-10.81,25.49-10.76,39.44.19,78.87.18,118.31.01,11.07-.05,17.99,5.78,17.5,17.45-.59,13.94-.52,27.9-1.21,41.87-1.41,28.81,1.54,57.61,1.17,86.45-.29,22.76-8.05,42.7-21.37,60.65-11.09,14.94-24.44,27.95-36.75,41.85-18.26,20.62-36.4,41.35-54.63,61.99-10.14,11.48-20.83,22.51-30.43,34.42-8.99,11.14-13.95,24.16-15.79,38.65-.82,6.45.24,12.49.26,18.72.09,40.88.03,81.76.08,122.64,0,3.41.19,6.96-3.97,7.91-3.89.88-6.41-.66-9-4.32-12.02-17.01-17.79-35.76-19.52-56.44-1.24-14.83-.43-29.58-.98-44.36-.66-17.87-.13-35.74-.88-53.65-1.02-24.56,6.19-47.47,20.25-67.99,7.99-11.66,17.88-21.69,27.31-32.06,18.42-20.26,36.87-40.49,54.88-61.13,8.88-10.18,18.41-19.79,27.28-29.97,8.48-9.73,17.58-19.01,22.41-31.48,2.8-7.21,3.28-14.71,3.41-22.06.46-25.39.18-50.79.17-76.18,0-8.29-2.17-10.68-10.37-10.72-21.06-.1-42.12-.07-63.18-.01-7.38.02-14.37,2.72-19.5,7.33-12.97,11.64-24.5,24.78-36.01,37.9-.68.77-1.37,1.53-2.09,2.27-12.15,12.57-24.66,24.83-36.39,37.79-18.51,20.45-37.66,40.33-55.53,61.38-10.54,12.43-21.78,24.26-31.97,37.01-7.06,8.83-9.63,19.22-9.91,29.94-.56,21.25-.17,42.53-.17,63.79Z"/>
  <path class="st0" d="M634.67,276.43c7.05,7.44,13.53,14.73,18.39,23.32,8.17,14.43,10.96,29.93,11.84,46.54,1.5,28.23-.67,56.47,1.21,84.58,1.2,17.94.47,35.22-5.27,52.22-5.46,16.19-14.71,30.23-26.35,42.44-19.66,20.6-38.49,41.94-57.65,62.98-13.88,15.25-27.21,31-41.25,46.12-12.12,13.06-21.4,27.83-24.41,45.82-.3,1.81-.24,3.69-.24,5.54-.01,23.53-.14,47.07.13,70.59.04,3.74-1.57,7.14-.5,11.26,1.16,4.48,3.54,5.82,7.14,5.84,24.36.12,48.72.2,73.08-.04,5.08-.05,9.88-2.28,13.55-6.02,14.55-14.84,29.26-29.55,43.43-44.74,10.48-11.23,20.75-22.66,31.34-33.8,14.24-14.99,28.23-30.22,41.97-45.66,12.1-13.6,24.37-27.04,36.72-40.41,12.87-13.93,19.55-30.43,19.51-49.59-.08-41.9-.02-83.81-.02-125.71,0-1.44-.03-2.89.01-4.33.07-2.08.48-4.36,2.63-4.93,2.01-.53,4.01.82,5.34,2.33,11.9,13.5,19.16,28.95,21.91,46.96,5.39,35.37,3.42,70.91,3.2,106.37-.06,9.72.46,19.76-1.36,29.4-2.49,13.25-9.79,24.26-18.83,34.01-13.95,15.05-28.34,29.69-42.2,44.83-16.75,18.3-33.71,36.38-50.68,54.47-10.51,11.2-20.7,22.7-31.37,33.78-9.37,9.73-18.34,19.84-27.44,29.82-10.8,11.85-24.24,16.87-40.18,16.77-36.95-.24-73.9-.07-110.86-.08-9.31,0-12.43-3.08-12.46-12.45-.05-12.8-.74-25.65.22-38.38.76-10.06,1.02-20.07.97-30.11-.1-19.67-1.95-39.31-2.09-58.93-.15-20.75,4.73-40.78,15.7-59.02,9.12-15.17,21.64-27.42,33.21-40.51,16.09-18.19,32.15-36.42,48.38-54.49,7.27-8.09,15.08-15.69,22.37-23.77,11.96-13.25,24.52-26.09,31.76-42.84,4.1-9.48,7.84-19.28,7.91-29.62.31-47.72.12-95.44.17-143.16,0-2.16-.61-4.44,1.04-7.42Z"/>
</svg>